<?xml version="1.0" encoding="UTF-8" standalone="no"?>
<svg
   version="1.1"
   viewBox="0 0 512 512"
   enable-background="new 0 0 512 512"
   id="svg16"
   sodipodi:docname="down_filled.svg"
   inkscape:version="1.2.1 (9c6d41e410, 2022-07-14)"
   xmlns:inkscape="http://www.inkscape.org/namespaces/inkscape"
   xmlns:sodipodi="http://sodipodi.sourceforge.net/DTD/sodipodi-0.dtd"
   xmlns="http://www.w3.org/2000/svg"
   xmlns:svg="http://www.w3.org/2000/svg">
  <defs
     id="defs20" />
  <sodipodi:namedview
     id="namedview18"
     pagecolor="#ffffff"
     bordercolor="#000000"
     borderopacity="0.25"
     inkscape:showpageshadow="2"
     inkscape:pageopacity="0.0"
     inkscape:pagecheckerboard="0"
     inkscape:deskcolor="#d1d1d1"
     showgrid="false"
     inkscape:zoom="1.5898438"
     inkscape:cx="255.99999"
     inkscape:cy="256.62898"
     inkscape:window-width="1920"
     inkscape:window-height="1001"
     inkscape:window-x="-9"
     inkscape:window-y="-9"
     inkscape:window-maximized="1"
     inkscape:current-layer="svg16" />
  <g
     id="g14"
     transform="rotate(180,255.98844,255.9625)">
    <path
       d="M 184.5,460.1 H 321.8 V 237 c 0,-11.3 9.1,-20.4 20.3,-20.4 h 69.3 L 255.6,60.1 99.9,216.6 h 64.2 c 11.2,0 20.3,9.1 20.3,20.4 V 460.1 Z M 342,501 H 164.1 c -11.2,0 -20.3,-9.1 -20.3,-20.4 V 257.5 H 50.9 C 31,257.5 25.7,233.6 36.5,222.6 L 241.3,16.7 C 248.9,9 262.4,9 270,16.7 l 204.7,205.9 c 12.6,12.7 5.4,34.9 -14.4,34.9 h -98 v 223.1 c 0.1,11.3 -9,20.4 -20.3,20.4 z"
       id="path12" />
  </g>
  <rect
     style="fill:#000000"
     id="rect147"
     width="326.44717"
     height="57.867321"
     x="92.461914"
     y="286.19165" />
  <rect
     style="fill:#000000"
     id="rect149"
     width="146.55528"
     height="383.68549"
     x="184.29483"
     y="50.319408" />
  <rect
     style="fill:#000000"
     id="rect151"
     width="223.29237"
     height="49.690414"
     x="147.18427"
     y="337.14005" />
  <rect
     style="fill:#000000"
     id="rect153"
     width="61.012283"
     height="43.40049"
     x="226.43733"
     y="416.3931" />
  <path
     style="fill:#e6e6e6;stroke-width:0.628993"
     d="m 252.9915,500.23154 c -1.82764,-0.2709 -4.49023,-1.08803 -5.91685,-1.81583 -1.71119,-0.87299 -25.0781,-23.93668 -68.6672,-67.77614 C 142.06711,394.0905 94.887227,346.63783 73.563253,325.18918 30.975303,282.35223 32.141733,283.73377 31.609911,275.49876 c -0.675303,-10.45675 6.094786,-18.65792 16.841487,-20.4015 2.587807,-0.41986 21.756511,-0.66198 52.647552,-0.665 l 48.57807,-0.005 0.16886,-113.70385 0.16886,-113.703854 2.05714,-4.178449 c 2.35647,-4.786412 5.20119,-7.548384 10.17951,-9.883409 l 3.48816,-1.636081 h 92.77641 c 88.10509,0 92.94174,0.05766 96.0599,1.14507 4.36026,1.520576 9.09872,5.863048 11.30891,10.363851 l 1.76141,3.586902 0.16558,113.97941 0.16558,113.97941 48.58135,0.19471 c 45.05602,0.18059 48.79562,0.27715 51.53417,1.33072 4.14937,1.59635 8.29985,5.48072 10.37795,9.71256 1.54017,3.1364 1.76505,4.32124 1.76505,9.29975 0,5.12354 -0.19244,6.07091 -1.88698,9.28947 -1.55,2.94402 -20.42065,22.22477 -105.67076,107.96723 -70.75644,71.16508 -104.69516,104.88028 -106.64765,105.94527 -3.54415,1.93317 -8.66411,2.76378 -13.03897,2.11532 z"
     id="path1006" />
  <path
     style="fill:#e6e6e6;stroke-width:0.628993"
     d=""
     id="path1008" />
  <path
     style="fill:#e6e6e6;stroke-width:0.628993"
     d="m 251.04133,499.39685 c -2.74194,-0.75905 -4.41733,-1.88553 -8.8059,-5.92078 C 236.57832,488.27441 141.39417,392.96653 76.365627,327.39065 54.140748,304.97872 37.347523,287.53303 35.511156,284.94889 c -3.044338,-4.284 -3.123243,-4.50986 -3.338312,-9.55519 -0.189036,-4.43462 -0.0026,-5.64102 1.314697,-8.50663 2.232937,-4.85751 4.429663,-7.12649 9.150594,-9.45155 l 4.191914,-2.06452 27.061633,-0.40513 c 14.883897,-0.22282 37.984538,-0.4351 51.334758,-0.47174 l 24.27313,-0.0666 0.41483,-14.25398 c 0.22816,-7.83969 0.41483,-58.93769 0.41483,-113.5511 V 27.325305 l 1.84872,-3.66229 c 2.6653,-5.27992 4.47997,-7.157722 9.43167,-9.759765 l 4.39605,-2.310057 93.27234,0.178833 93.27235,0.178834 2.83046,1.33776 c 4.19797,1.984081 7.70557,5.340174 9.91635,9.488016 l 1.96567,3.687984 0.19167,113.61469 c 0.10542,62.48808 0.39994,113.82288 0.65448,114.07734 0.25454,0.25446 22.47371,0.63967 49.37592,0.85602 l 48.91311,0.39337 2.65573,1.40157 c 4.193,2.21288 6.8823,4.94134 8.95118,9.08153 1.66792,3.33782 1.91464,4.49498 1.90262,8.92384 -0.01,3.56203 -0.3587,5.84795 -1.16338,7.61933 -1.85311,4.07933 -21.5292,24.22921 -119.58939,122.46901 -74.38916,74.52543 -92.69289,92.54844 -94.97788,93.52123 -4.04952,1.72402 -9.07966,2.09712 -13.13557,0.9743 z"
     id="path1010" />
  <path
     style="fill:#e6e6e6;stroke-width:0.628993"
     d="m 251.04204,499.39704 c -2.64884,-0.7333 -4.42801,-1.88472 -8.1769,-5.29181 C 237.80792,489.5091 134.26043,385.82895 74.165219,325.18918 53.4979,304.33458 37.329124,287.50112 35.513862,284.94889 c -3.047775,-4.28512 -3.125893,-4.50854 -3.341018,-9.55519 -0.189036,-4.43462 -0.0026,-5.64102 1.314697,-8.50663 2.232937,-4.85751 4.429663,-7.12649 9.150594,-9.45155 l 4.191914,-2.06452 27.061633,-0.40513 c 14.883897,-0.22282 38.016488,-0.4351 51.405748,-0.47174 l 24.34413,-0.0666 0.21316,-10.53563 c 0.11723,-5.79459 0.27444,-56.91861 0.34934,-113.60892 l 0.13619,-103.073295 2.29096,-4.359702 c 2.53102,-4.816532 5.14516,-7.316293 10.12726,-9.684133 l 3.30884,-1.572593 93.24152,0.178811 93.24153,0.178812 3.56044,1.748462 c 4.06061,1.994087 7.33799,5.328516 9.57357,9.74023 l 1.54173,3.042458 0.21004,113.60597 c 0.11552,62.48327 0.41568,113.81154 0.66702,114.06281 0.25133,0.25127 22.4705,0.63693 49.37592,0.85704 l 48.91894,0.40018 2.65573,1.40059 c 4.19186,2.21072 6.88199,4.93972 8.95118,9.08054 1.66792,3.33782 1.91464,4.49498 1.90262,8.92384 -0.01,3.55393 -0.35903,5.84862 -1.15839,7.60819 -1.86602,4.1075 -20.90669,23.60984 -118.96539,121.84994 -74.92951,75.06812 -93.32089,93.17968 -95.60687,94.15225 -4.05033,1.72321 -9.08047,2.09609 -13.13486,0.97368 z"
     id="path1012" />
  <path
     style="fill:#e6e6e6;stroke-width:0.628993"
     d="m 251.04204,499.39704 c -2.6423,-0.73149 -4.43727,-1.89014 -8.1769,-5.27817 -2.63529,-2.38752 -35.64352,-35.29001 -73.35163,-73.11664 C 40.191238,291.27345 34.615392,285.54854 32.712748,280.5442 c -0.849655,-2.23476 -0.805403,-9.35975 0.07641,-12.30299 1.271147,-4.24271 4.886871,-8.25017 9.625843,-10.66874 l 4.3136,-2.20147 26.797859,-0.39731 c 14.738822,-0.21852 37.89692,-0.4308 51.46243,-0.47174 l 24.66457,-0.0744 0.19805,-13.99509 c 0.10894,-7.69729 0.26439,-58.82306 0.34545,-113.61281 l 0.14739,-99.617734 2.28891,-4.355808 c 2.52956,-4.813766 5.14396,-7.312804 10.12894,-9.682001 l 3.31256,-1.574357 93.5523,0.180575 93.55229,0.180575 3.33589,1.848028 c 3.9344,2.179584 7.04197,5.442199 9.1519,9.608503 l 1.5245,3.010299 0.23068,113.64141 c 0.12687,62.50277 0.43478,113.84551 0.68424,114.09497 0.24947,0.24946 22.4671,0.63365 49.37252,0.85376 l 48.91894,0.40018 2.65573,1.40059 c 4.19186,2.21072 6.88199,4.93972 8.95118,9.08054 1.66792,3.33782 1.91464,4.49498 1.90262,8.92384 -0.01,3.55393 -0.35903,5.84862 -1.15839,7.60819 -1.86805,4.11195 -20.95278,23.65963 -118.96539,121.85121 -74.91361,75.05039 -93.32137,93.17775 -95.60687,94.1505 -4.04968,1.72362 -9.08,2.09669 -13.13486,0.97416 z"
     id="path1014" />
  <path
     style="fill:#e6e6e6;stroke-width:0.628993"
     d=""
     id="path1016" />
  <path
     style="fill:#e6e6e6;stroke-width:0.628993"
     d=""
     id="path1018" />
  <path
     style="fill:#e6e6e6;stroke-width:0.628993"
     d="m 251.04204,499.39704 c -2.6442,-0.73201 -4.43458,-1.88857 -8.1769,-5.28211 -4.80646,-4.35851 -120.93391,-120.65234 -174.022857,-174.27219 -28.664022,-28.95067 -34.370886,-35.1174 -35.91203,-38.80587 -1.035286,-2.47779 -1.113277,-9.5508 -0.141093,-12.79566 1.271148,-4.24271 4.88687,-8.25017 9.625848,-10.66874 l 4.313604,-2.20147 26.483358,-0.39817 c 14.565848,-0.21898 37.71916,-0.43126 51.45181,-0.47174 l 24.96845,-0.0736 0.2219,-19.34152 c 0.12204,-10.63784 0.28154,-61.76223 0.35444,-113.60975 l 0.13255,-94.268218 2.29053,-4.35888 c 2.49833,-4.754342 5.09361,-7.264813 10.00962,-9.682542 l 3.19165,-1.569673 93.67322,0.176966 93.67321,0.176967 3.33589,1.848028 c 3.93894,2.1821 7.04754,5.448176 9.14524,9.608503 l 1.51783,3.010299 0.27297,113.67704 c 0.15013,62.52236 0.43049,113.83454 0.62301,114.02706 0.19252,0.19253 19.70518,0.48572 43.36146,0.65155 50.08982,0.35111 54.5231,0.4955 57.41979,1.87007 3.79175,1.7993 7.17088,5.24637 9.21668,9.402 1.90322,3.86597 1.96444,4.23788 1.62635,9.88023 -0.42527,7.09747 -0.4771,7.43553 -1.14003,7.43553 -0.28828,0 -0.52416,0.56609 -0.52416,1.25799 0,0.69189 -0.22349,1.18722 -0.49665,1.10073 -0.27316,-0.0865 -3.16099,2.67322 -6.4174,6.13268 -10.94041,11.62257 -38.85773,39.78526 -121.71494,122.78466 -65.84576,65.95876 -82.96662,82.78561 -85.22849,83.7649 -4.02222,1.74141 -9.05993,2.123 -13.13486,0.99491 z"
     id="path1020" />
</svg>
