<?xml version="1.0" encoding="UTF-8" standalone="no"?>
<svg
   version="1.1"
   viewBox="0 0 512 512"
   enable-background="new 0 0 512 512"
   id="svg16"
   sodipodi:docname="down.svg"
   inkscape:version="1.2.1 (9c6d41e410, 2022-07-14)"
   xmlns:inkscape="http://www.inkscape.org/namespaces/inkscape"
   xmlns:sodipodi="http://sodipodi.sourceforge.net/DTD/sodipodi-0.dtd"
   xmlns="http://www.w3.org/2000/svg"
   xmlns:svg="http://www.w3.org/2000/svg">
  <defs
     id="defs20" />
  <sodipodi:namedview
     id="namedview18"
     pagecolor="#ffffff"
     bordercolor="#000000"
     borderopacity="0.25"
     inkscape:showpageshadow="2"
     inkscape:pageopacity="0.0"
     inkscape:pagecheckerboard="0"
     inkscape:deskcolor="#d1d1d1"
     showgrid="false"
     inkscape:zoom="1.5898438"
     inkscape:cx="255.99999"
     inkscape:cy="256.62898"
     inkscape:window-width="1920"
     inkscape:window-height="1001"
     inkscape:window-x="-9"
     inkscape:window-y="-9"
     inkscape:window-maximized="1"
     inkscape:current-layer="svg16" />
  <g
     id="g14"
     transform="rotate(180,255.98844,255.9625)">
    <path
       d="M 184.5,460.1 H 321.8 V 237 c 0,-11.3 9.1,-20.4 20.3,-20.4 h 69.3 L 255.6,60.1 99.9,216.6 h 64.2 c 11.2,0 20.3,9.1 20.3,20.4 V 460.1 Z M 342,501 H 164.1 c -11.2,0 -20.3,-9.1 -20.3,-20.4 V 257.5 H 50.9 C 31,257.5 25.7,233.6 36.5,222.6 L 241.3,16.7 C 248.9,9 262.4,9 270,16.7 l 204.7,205.9 c 12.6,12.7 5.4,34.9 -14.4,34.9 h -98 v 223.1 c 0.1,11.3 -9,20.4 -20.3,20.4 z"
       id="path12" />
  </g>
  <path
     style="fill:#e6e6e6;stroke-width:0.628993"
     d="m 252.9915,500.23154 c -1.82764,-0.2709 -4.49023,-1.08803 -5.91685,-1.81583 -1.71119,-0.87299 -25.0781,-23.93668 -68.6672,-67.77614 C 142.06711,394.0905 94.887227,346.63783 73.563253,325.18918 30.975303,282.35223 32.141733,283.73377 31.609911,275.49876 c -0.675303,-10.45675 6.094786,-18.65792 16.841487,-20.4015 2.587807,-0.41986 21.756511,-0.66198 52.647552,-0.665 l 48.57807,-0.005 0.16886,-113.70385 0.16886,-113.703854 2.05714,-4.178449 c 2.35647,-4.786412 5.20119,-7.548384 10.17951,-9.883409 l 3.48816,-1.636081 h 92.77641 c 88.10509,0 92.94174,0.05766 96.0599,1.14507 4.36026,1.520576 9.09872,5.863048 11.30891,10.363851 l 1.76141,3.586902 0.16558,113.97941 0.16558,113.97941 48.58135,0.19471 c 45.05602,0.18059 48.79562,0.27715 51.53417,1.33072 4.14937,1.59635 8.29985,5.48072 10.37795,9.71256 1.54017,3.1364 1.76505,4.32124 1.76505,9.29975 0,5.12354 -0.19244,6.07091 -1.88698,9.28947 -1.55,2.94402 -20.42065,22.22477 -105.67076,107.96723 -70.75644,71.16508 -104.69516,104.88028 -106.64765,105.94527 -3.54415,1.93317 -8.66411,2.76378 -13.03897,2.11532 z m 81.93142,-126.73267 77.74151,-78.11783 -34.47456,-0.19175 -34.47456,-0.19176 -4.17731,-2.05714 c -4.7855,-2.35666 -7.54751,-5.20175 -9.88228,-10.17951 l -1.63607,-3.48816 -0.16559,-114.00491 -0.16559,-114.004912 H 258.83043 189.9724 l -0.16556,114.319402 -0.16557,114.31941 -1.45083,2.91609 c -2.34433,4.71196 -5.46884,7.85794 -10.04011,10.10909 l -4.20471,2.07064 -36.81065,0.3145 -36.81065,0.3145 77.68059,78.09354 c 42.72432,42.95144 78.01717,78.04923 78.42854,77.99508 0.41137,-0.0542 35.73163,-35.25148 78.48947,-78.21628 z"
     id="path826" />
</svg>
