<?xml version="1.0"?>
<svg version="1.1" xmlns="http://www.w3.org/2000/svg" width="400px" height="200px" style="border: dashed 2px #aaa"><path fill="#ffffff" d="M54.6,98.44l19.08,0l0-2.48l-21.56,0l0,0.48l0,27.56l2.48,0l0-12.48l10.12,0l0-2.6l-10.12,0l0-10.48z M89.1136,96q-4.52,0-7.76,3.24q-3.28,3.28-3.28,7.8l0,6.04q0,4.44,3.28,7.72t7.76,3.28q4.52,0,7.8-3.28q3.24-3.24,3.24-7.72l0-6.04q0-4.56-3.24-7.8t-7.8-3.24z M97.6736,107.04l0,6.04q0,3.64-2.56,6.12q-2.52,2.4-6,2.4t-5.96-2.4q-2.56-2.48-2.56-6.12l0-6.04q0-3.36,2.56-6q2.56-2.56,5.96-2.56q3.36,0,6,2.56q2.56,2.64,2.56,6z M118.2272,109.96l3,0q3.04,0,5.04-2t2-5.04q0-2.68-2-4.8q-2.12-2.2-5.04-2.2l-12.52,0l-2.48,0l0,28.08l2.48,0l0-14.04l6.52,0l8.52,14.04l3,0z M108.7072,107.48l0-9.04l12.52,0q1.84,0,3.24,1.32q1.32,1.32,1.32,3.16q0,1.92-1.32,3.24q-1.4,1.32-3.24,1.32l-12.52,0z M134.1408,123.92l2.48,0l0-16.92q0-3.36,2.56-5.92t5.92-2.56q3.28,0,5.92,2.56q2.52,2.52,2.52,5.92l0,16.92l2.56,0l0-16.92q0-3.44,2.56-5.92q2.56-2.56,5.88-2.56q3.36,0,5.92,2.56t2.56,5.92l0,16.92l2.48,0l0-16.92q0-4.56-3.2-7.76t-7.76-3.2q-3,0-5.64,1.64q-2.68,1.68-3.84,4.28q-1.56-2.68-4.2-4.28q-2.76-1.64-5.76-1.64q-4.52,0-7.72,3.2q-3.24,3.24-3.24,7.76l0,16.92z M214.168,109.72q1.56-0.76,2.56-2.52q1-1.68,1-3.6q0-3.44-2.32-5.56q-2.32-2.08-5.84-2.08l-11.24,0l-0.48,0l-2.04,0l0,28.04l2.04,0l0.48,0l11.24,0q3.52,0,5.84-2.08q2.32-2.12,2.32-5.56q0-1.88-0.98-3.66t-2.58-2.98z M198.328,98l11.24,0q2.4,0,3.96,1.64q1.68,1.76,1.68,3.96q0,1.8-1.32,3.32q-1.24,1.36-3.28,1.8l-1.04,0l-11.24,0l0-10.72z M209.568,121.96l-11.24,0l0-10.72l11.24,0l1.04,0q2.04,0.44,3.28,1.8q1.32,1.52,1.32,3.32q0,2.16-1.68,3.92q-1.6,1.68-3.96,1.68z M246.2416,95.96l-2.52,0l0,17.08q0,3.68-2.56,6.16q-2.52,2.4-6,2.4q-3.8,0-6.12-2.4q-2.36-2.44-2.36-6.16l0-17.08l-2.56,0l0,17.08q0,4.56,3.12,7.76q3.16,3.28,7.92,3.28q4.44,0,7.8-3.28q3.28-3.2,3.28-7.76l0-17.08z M252.4752,124.04l2.52,0l0-28.12l-2.52,0l0,28.12z M261.3888,124.08l19.56,0l0-2.04l-17.08,0l0-26.04l-2.48,0l0,28.08z M294.3824,95.96l-6.12,0l-1.52,0l-1,0l0,28.04l1,0l1.52,0l6.12,0q5.84,0,10-4.08q4.28-4.2,4.28-10.2q0-5.68-4.28-9.76q-4.2-4-10-4z M294.3824,121.48l-6.12,0l0-22.92l6.12,0q5,0,8.4,3.28q3.36,3.28,3.36,7.88q0,5-3.36,8.36q-3.4,3.4-8.4,3.4z M316.696,116.32q0-1.92,1.36-3.48q1.36-1.64,3.28-1.64l0.52,0l7.48,0l0-2.48l-7.48,0l-0.52,0q-2.04-0.4-3.34-1.76t-1.3-3.24q0-2.36,1.38-3.74t3.78-1.38l13.6,0l0-2.52l-13.6,0q-3.08,0-5.36,2.28q-2.28,2.2-2.28,5.36q0,2,0.76,3.64t2.24,2.36q-1.48,1.08-2.24,2.84t-0.76,3.76q0,3.12,2.28,5.32q2.32,2.32,5.36,2.32l13.6,0l0-2.64l-13.6,0q-2.4,0-3.78-1.36t-1.38-3.64z M352.6896,109.96l3,0q3.04,0,5.04-2t2-5.04q0-2.68-2-4.8q-2.12-2.2-5.04-2.2l-12.52,0l-2.48,0l0,28.08l2.48,0l0-14.04l6.52,0l8.52,14.04l3,0z M343.1696,107.48l0-9.04l12.52,0q1.84,0,3.24,1.32q1.32,1.32,1.32,3.16q0,1.92-1.32,3.24q-1.4,1.32-3.24,1.32l-12.52,0z"/><path fill="#" d=""/></svg>
