<?xml version="1.0"?>
<svg xmlns="http://www.w3.org/2000/svg" xmlns:xlink="http://www.w3.org/1999/xlink" xmlns:svgjs="http://svgjs.com/svgjs" version="1.1" width="256" height="256" x="0" y="0" viewBox="0 0 24 24" style="enable-background:new 0 0 512 512" xml:space="preserve"><g><path d="M23,16a1,1,0,0,0-1,1v2a3,3,0,0,1-3,3H17a1,1,0,0,0,0,2h2a5.006,5.006,0,0,0,5-5V17A1,1,0,0,0,23,16Z" fill="#ffffff" data-original="#000000"/><path d="M1,8A1,1,0,0,0,2,7V5A3,3,0,0,1,5,2H7A1,1,0,0,0,7,0H5A5.006,5.006,0,0,0,0,5V7A1,1,0,0,0,1,8Z" fill="#ffffff" data-original="#000000"/><path d="M7,22H5a3,3,0,0,1-3-3V17a1,1,0,0,0-2,0v2a5.006,5.006,0,0,0,5,5H7a1,1,0,0,0,0-2Z" fill="#ffffff" data-original="#000000"/><path d="M19,0H17a1,1,0,0,0,0,2h2a3,3,0,0,1,3,3V7a1,1,0,0,0,2,0V5A5.006,5.006,0,0,0,19,0Z" fill="#ffffff" data-original="#000000"/><circle cx="12" cy="7" r="4" fill="#ffffff" data-original="#000000"/><path d="M11,13a6.006,6.006,0,0,0-6,6,1,1,0,0,0,1,1H18a1,1,0,0,0,1-1,6.006,6.006,0,0,0-6-6Z" fill="#ffffff" data-original="#000000"/></g></svg>
