<?xml version="1.0" encoding="UTF-8" standalone="no"?>
<svg
   viewBox="0 0 20 20"
   class="_30bZQzX8IR92H3gw3vlaLF "
   version="1.1"
   id="svg1136"
   sodipodi:docname="subreddit.svg"
   inkscape:version="1.2.1 (9c6d41e410, 2022-07-14)"
   xmlns:inkscape="http://www.inkscape.org/namespaces/inkscape"
   xmlns:sodipodi="http://sodipodi.sourceforge.net/DTD/sodipodi-0.dtd"
   xmlns="http://www.w3.org/2000/svg"
   xmlns:svg="http://www.w3.org/2000/svg">
  <defs
     id="defs1140" />
  <sodipodi:namedview
     id="namedview1138"
     pagecolor="#ffffff"
     bordercolor="#000000"
     borderopacity="0.25"
     inkscape:showpageshadow="2"
     inkscape:pageopacity="0.0"
     inkscape:pagecheckerboard="0"
     inkscape:deskcolor="#d1d1d1"
     showgrid="false"
     inkscape:zoom="40.7"
     inkscape:cx="10"
     inkscape:cy="10"
     inkscape:window-width="1920"
     inkscape:window-height="1001"
     inkscape:window-x="-9"
     inkscape:window-y="-9"
     inkscape:window-maximized="1"
     inkscape:current-layer="svg1136" />
  <path
     d="M16.5,2.924,11.264,15.551H9.91L15.461,2.139h.074a9.721,9.721,0,1,0,.967.785ZM8.475,8.435a1.635,1.635,0,0,0-.233.868v4.2H6.629V6.2H8.174v.93h.041a2.927,2.927,0,0,1,1.008-.745,3.384,3.384,0,0,1,1.453-.294,3.244,3.244,0,0,1,.7.068,1.931,1.931,0,0,1,.458.151l-.656,1.558a2.174,2.174,0,0,0-1.067-.246,2.159,2.159,0,0,0-.981.215A1.59,1.59,0,0,0,8.475,8.435Z"
     id="path1134" />
  <path
     style="fill:#ff7f2a;stroke-width:0.02457"
     d="M 9.2628993,19.752153 C 9.215602,19.746838 9.0552826,19.730488 8.9066339,19.715818 6.663929,19.494494 4.4848511,18.430916 2.9127236,16.790274 0.38196046,14.149219 -0.45555902,10.363182 0.72773774,6.9129686 1.5325372,4.5663636 3.2139371,2.6100692 5.4124057,1.4623973 6.4881044,0.90084762 7.6905806,0.53817898 8.9312039,0.40112252 c 0.3872364,-0.0427795 1.5540191,-0.0427633 1.9410321,2.703e-5 1.408198,0.15569802 2.70867,0.57862308 3.907566,1.27077535 0.375868,0.2169979 0.701041,0.4416807 0.676525,0.4674542 -0.02168,0.022794 -5.5546071,13.3805219 -5.5546071,13.4100729 0,0.0086 0.3078081,0.01566 0.6840171,0.01566 h 0.684017 l 0.02513,-0.05528 c 0.01382,-0.03041 1.189219,-2.863636 2.611998,-6.2960688 1.422778,-3.4324324 2.591885,-6.2463145 2.598014,-6.2530712 0.02172,-0.023949 0.695176,0.6924314 0.952608,1.0133292 1.154344,1.4389307 1.848889,3.0886459 2.092192,4.9694717 0.06191,0.4786148 0.06206,1.7701551 2.56e-4,2.2358721 -0.254546,1.918057 -0.922188,3.501797 -2.102621,4.987715 -0.303165,0.381621 -1.063713,1.14249 -1.439957,1.440566 -1.486893,1.177974 -3.133713,1.872502 -4.97543,2.098331 -0.311515,0.0382 -1.5519037,0.07058 -1.7690417,0.04618 z M 8.2559548,11.320639 C 8.2563111,9.4800459 8.262331,9.087045 8.2923673,8.9434889 8.3871865,8.4903125 8.727427,8.0536034 9.1413754,7.8537607 9.4760531,7.692188 9.6810179,7.6473789 10.09828,7.6445639 c 0.403459,-0.00272 0.549381,0.022215 0.868134,0.1483545 0.119365,0.047236 0.220216,0.082196 0.224113,0.077687 0.03226,-0.037326 0.650345,-1.5515577 0.640091,-1.5681501 C 11.809072,6.2675936 11.576679,6.1884826 11.351351,6.1393037 11.187016,6.1034366 11.037778,6.0936843 10.651106,6.0935442 10.22549,6.0933968 10.125435,6.1010378 9.9037155,6.1506727 9.2875287,6.2886143 8.7793366,6.5531744 8.36896,6.9496528 8.2759572,7.0395059 8.1958037,7.1130221 8.190841,7.1130221 c -0.00496,0 -0.00902,-0.2100737 -0.00902,-0.4668305 V 6.1793612 H 7.3955774 6.6093366 v 3.6732187 3.6732191 h 0.8230958 0.8230959 l 4.275e-4,-2.20516 z"
     id="path1142" />
  <path
     style="fill:#b3b3b3;stroke-width:0.02457"
     d="M 8.8820639,19.704438 C 7.9367484,19.590209 7.1022206,19.378208 6.2765563,19.042542 2.8800902,17.661742 0.57335818,14.536279 0.24650375,10.872236 0.21417443,10.509824 0.21435429,9.6429484 0.24683765,9.2628993 0.4958527,6.3494708 2.0582016,3.6758081 4.4594595,2.0537988 5.7380845,1.1901092 7.0869693,0.67730533 8.7100737,0.43784801 9.139802,0.37445 10.666233,0.37467518 11.093366,0.43819958 c 1.172077,0.1743147 2.098583,0.45222899 3.046683,0.91388172 0.584121,0.2844226 1.289926,0.7130376 1.289926,0.7833348 0,0.01761 -0.06726,0.1911516 -0.149461,0.3856477 -0.346913,0.8208006 -4.781338,11.5263762 -5.218208,12.5977812 -0.088322,0.216607 -0.1605861,0.405629 -0.1605861,0.420048 0,0.01797 0.2183531,0.02605 0.6941031,0.0257 l 0.694103,-5.16e-4 1.866066,-4.50194 c 1.47012,-3.546711 2.983084,-7.191895 3.321064,-8.0014385 l 0.03518,-0.084263 0.100623,0.096548 c 0.184172,0.1767133 0.685171,0.7290745 0.866063,0.9548494 0.695847,0.8685039 1.254968,1.8952022 1.607728,2.9522315 0.236057,0.7073302 0.417832,1.5602503 0.47081,2.2091238 0.03178,0.3892133 0.03137,1.3498858 -7.35e-4,1.7453018 -0.0467,0.575057 -0.227982,1.467793 -0.421435,2.075337 -0.402898,1.265311 -1.143457,2.551374 -2.026901,3.519939 -0.372243,0.408109 -0.952556,0.948779 -1.297576,1.208936 -1.421625,1.071952 -2.947734,1.704789 -4.68196,1.941486 -0.412222,0.05626 -1.8531608,0.07181 -2.2467871,0.02425 z M 8.2555784,13.015971 c 2.45e-5,-0.280406 0.00669,-1.283784 0.014805,-2.22973 C 8.2868614,8.8654162 8.2850248,8.8872857 8.4578872,8.5534236 8.610288,8.2590801 8.8609767,8.0156575 9.1656811,7.866144 9.4649236,7.7193106 9.6253983,7.6793892 9.9891668,7.6612843 c 0.3727162,-0.01855 0.6362102,0.018406 0.9384262,0.1316189 0.126364,0.047337 0.243823,0.080667 0.261021,0.074068 0.02841,-0.0109 0.291397,-0.6237513 0.558886,-1.3023747 0.120532,-0.3057887 0.13079,-0.2806609 -0.151462,-0.3710172 -0.262179,-0.083931 -0.508005,-0.112498 -0.968062,-0.112498 -0.464741,0 -0.7229364,0.037883 -1.0864559,0.1594064 C 9.0926216,6.3905528 8.7454002,6.5918737 8.4108133,6.8960774 L 8.2186732,7.0707695 8.2028474,6.8523381 C 8.1941432,6.7322007 8.1858509,6.5316339 8.1844199,6.4066339 l -0.0026,-0.2272727 H 7.3955774 6.6093366 v 3.6732187 3.6732191 h 0.8230958 0.8230959 z"
     id="path1218" />
  <path
     style="fill:#f2f2f2;stroke-width:0.02457"
     d="M 8.980344,19.701309 C 7.6726017,19.545667 6.6536619,19.246285 5.5651106,18.697854 2.647401,17.227863 0.71219749,14.472446 0.29654737,11.196272 0.23192316,10.686901 0.22454844,9.5436452 0.28264851,9.0416184 0.50217113,7.144784 1.2041449,5.4621617 2.3992884,3.968059 2.6916147,3.6026086 3.304486,2.9739627 3.6486486,2.6865409 5.0512946,1.5151451 6.5828838,0.81744779 8.4766585,0.48719821 c 0.3171223,-0.055302 0.4453491,-0.0635097 1.1670761,-0.0747032 0.9130624,-0.0141611 1.3308374,0.009194 1.8427514,0.10301706 0.412582,0.0756172 0.961151,0.20691922 1.30035,0.31124342 0.778417,0.23940981 1.869364,0.76056071 2.479361,1.18440311 0.124265,0.086343 0.141666,0.1080026 0.130723,0.1627161 -0.0069,0.034713 -0.327433,0.8202346 -0.712201,1.7456029 -1.584574,3.8109052 -4.442309,10.7189854 -4.66273,11.2713424 -0.066148,0.165762 -0.1202691,0.317958 -0.1202691,0.338215 0,0.03202 0.091908,0.03598 0.7038941,0.03031 l 0.703894,-0.0065 0.661649,-1.597052 c 0.363908,-0.878378 1.524418,-3.675676 2.578912,-6.2162163 1.054493,-2.5405405 1.92807,-4.6468059 1.941281,-4.6805896 0.0234,-0.059829 0.03083,-0.054366 0.286267,0.2102358 0.798761,0.8274307 1.30859,1.5392895 1.783016,2.4895693 0.418164,0.8375885 0.706957,1.7211226 0.884356,2.7056003 0.102516,0.5689125 0.118422,0.8343091 0.106158,1.7712615 -0.01194,0.911868 -0.02598,1.059372 -0.164429,1.727122 -0.327358,1.578866 -0.970219,2.939028 -1.987112,4.204319 -0.27333,0.340098 -0.962468,1.035932 -1.323363,1.336223 -0.703738,0.58556 -1.609399,1.132893 -2.479479,1.498463 -0.869307,0.365244 -1.95658,0.633974 -2.797404,0.691403 -0.3207,0.0219 -1.6532725,0.02787 -1.819016,0.0081 z M 8.2638708,13.101966 c 0.00884,-0.233109 0.016584,-1.026413 0.017203,-1.7629 0.0013,-1.5460142 0.027525,-2.364106 0.081367,-2.5382041 0.1087546,-0.351656 0.431058,-0.7211339 0.790357,-0.9060388 0.3278219,-0.1687057 0.4362718,-0.1950405 0.8652232,-0.210102 0.413733,-0.014527 0.542716,0.0025 0.911593,0.1203455 0.126152,0.040302 0.243402,0.06789 0.260556,0.061308 0.0499,-0.019148 0.65238,-1.4455449 0.652522,-1.5448712 7.3e-5,-0.054994 -0.06449,-0.087699 -0.318819,-0.1614708 -0.18584,-0.053907 -0.269533,-0.062064 -0.744523,-0.07256 -0.63278,-0.013983 -0.8249883,0.0081 -1.2243689,0.1406582 C 9.0819902,6.3851226 8.7315093,6.5870265 8.3876157,6.9006224 L 8.2371479,7.0378337 8.2220386,6.9464354 C 8.2137283,6.8961661 8.2068074,6.7204988 8.2066587,6.5560636 8.2065113,6.3916283 8.1996771,6.2396012 8.1914744,6.2182258 8.1783064,6.1839106 8.0848349,6.1793612 7.3929486,6.1793612 h -0.783612 v 3.6732187 3.6732191 h 0.8192285 0.8192285 z"
     id="path1226" />
</svg>
