<?xml version="1.0" encoding="UTF-8" standalone="no"?>
<!-- Created with Inkscape (http://www.inkscape.org/) -->

<svg
   width="210mm"
   height="297mm"
   viewBox="0 0 210 297"
   version="1.1"
   id="svg3632"
   inkscape:version="1.2.1 (9c6d41e410, 2022-07-14)"
   sodipodi:docname="t.svg"
   xmlns:inkscape="http://www.inkscape.org/namespaces/inkscape"
   xmlns:sodipodi="http://sodipodi.sourceforge.net/DTD/sodipodi-0.dtd"
   xmlns="http://www.w3.org/2000/svg"
   xmlns:svg="http://www.w3.org/2000/svg">
  <sodipodi:namedview
     id="namedview3634"
     pagecolor="#ffffff"
     bordercolor="#000000"
     borderopacity="0.25"
     inkscape:showpageshadow="2"
     inkscape:pageopacity="0.0"
     inkscape:pagecheckerboard="0"
     inkscape:deskcolor="#d1d1d1"
     inkscape:document-units="mm"
     showgrid="false"
     inkscape:zoom="0.72515432"
     inkscape:cx="374.40306"
     inkscape:cy="561.94935"
     inkscape:window-width="1920"
     inkscape:window-height="1001"
     inkscape:window-x="-9"
     inkscape:window-y="-9"
     inkscape:window-maximized="1"
     inkscape:current-layer="layer1" />
  <defs
     id="defs3629" />
  <g
     inkscape:label="Layer 1"
     inkscape:groupmode="layer"
     id="layer1">
    <path
       fill="#ffffff"
       d="m -83.470645,136.24154 h 24.838724 v -3.45169 h -28.067254 v 0.66806 38.35868 h 3.22853 v -17.36998 h 13.174401 v -3.61873 h -13.174401 z m 44.930476,-3.39604 q -5.884193,0 -10.102091,4.50951 -4.270001,4.56516 -4.270001,10.85625 v 8.40659 q 0,6.17972 4.270001,10.74494 4.269954,4.56516 10.102091,4.56516 5.884242,0 10.154196,-4.56516 4.217896,-4.50951 4.217896,-10.74494 v -8.40659 q 0,-6.34673 -4.217896,-10.85625 -4.217898,-4.50951 -10.154196,-4.50951 z m 11.143613,15.36576 v 8.40659 q 0,5.0663 -3.332693,8.518 -3.280587,3.34036 -7.81092,3.34036 -4.530333,0 -7.758814,-3.34036 -3.332692,-3.4517 -3.332692,-8.518 v -8.40659 q 0,-4.67653 3.332692,-8.35098 3.332643,-3.56304 7.758814,-3.56304 4.374115,0 7.81092,3.56304 3.332693,3.67445 3.332693,8.35098 z m 26.75708453,4.0641 H 3.2659879 q 3.9575195,0 6.5611751,-2.78362 2.603606,-2.78366 2.603606,-7.0148 0,-3.73014 -2.603606,-6.68075 -2.7598773,-3.06207 -6.5611751,-3.06207 h -16.2988189 -3.22848 v 39.08247 h 3.22848 v -19.54123 h 8.4879013 L 6.5465755,171.81659 H 10.452035 Z M -13.032831,148.82367 V 136.24154 H 3.2659879 q 2.3953337,0 4.2178993,1.8372 1.7184018,1.83722 1.7184018,4.3982 0,2.67232 -1.7184018,4.50951 -1.8225656,1.83722 -4.2178993,1.83722 z m 33.109986,22.88163 h 3.22853 v -23.5497 q 0,-4.67654 3.332642,-8.23964 3.332644,-3.56307 7.706758,-3.56307 4.270001,0 7.706807,3.56307 3.280586,3.50738 3.280586,8.23964 v 23.5497 h 3.332642 v -23.5497 q 0,-4.7879 3.332644,-8.23964 3.332692,-3.56307 7.654701,-3.56307 4.374114,0 7.706809,3.56307 3.332636,3.5631 3.332636,8.23964 v 23.5497 h 3.228546 v -23.5497 q 0,-6.34674 -4.165851,-10.80059 -4.165847,-4.45386 -10.10214,-4.45386 -3.905461,0 -7.342266,2.28261 -3.488861,2.33827 -4.998986,5.95704 -2.030841,-3.73014 -5.467646,-5.95704 -3.593021,-2.28261 -7.498482,-2.28261 -5.884193,0 -10.050034,4.45386 -4.217896,4.50952 -4.217896,10.80059 z M 124.25815,151.94132 q 2.03083,-1.05776 3.33267,-3.50741 1.30182,-2.33826 1.30182,-5.01057 0,-4.78783 -3.02021,-7.73852 -3.02024,-2.89497 -7.60263,-2.89497 h -14.63248 -0.62487 -2.65571 v 39.02674 h 2.65571 0.62487 14.63248 q 4.58239,0 7.60263,-2.89498 3.02021,-2.9507 3.02021,-7.73854 0,-2.61665 -1.27578,-5.09409 -1.27577,-2.47747 -3.35871,-4.14766 z m -20.62083,-16.31216 h 14.63248 q 3.12436,0 5.15521,2.28255 2.18704,2.44965 2.18704,5.51163 0,2.5053 -1.71839,4.6209 -1.61425,1.89286 -4.26997,2.50528 h -1.35389 -14.63248 z m 14.63248,33.34812 h -14.63248 v -14.92037 h 14.63248 1.35389 q 2.65572,0.61243 4.26997,2.50531 1.71839,2.11556 1.71839,4.62085 0,3.00635 -2.18704,5.45593 -2.08291,2.33828 -5.15521,2.33828 z m 47.74239,-36.18743 h -3.28058 v 23.77237 q 0,5.12193 -3.33265,8.57363 -3.28058,3.34036 -7.81092,3.34036 -4.94692,0 -7.96713,-3.34036 -3.07232,-3.39606 -3.07232,-8.57363 v -23.77237 h -3.33265 v 23.77237 q 0,6.34671 4.0617,10.80057 4.11373,4.56516 10.3104,4.56516 5.78009,0 10.1542,-4.56516 4.26995,-4.45386 4.26995,-10.80057 z m 8.11503,39.08246 h 3.28062 v -39.13819 h -3.28062 z m 11.60393,0.0558 h 25.4636 v -2.83933 h -22.23509 v -36.24307 h -3.22851 z m 42.95172,-39.13813 h -7.96712 -1.97879 -1.30179 v 39.02677 h 1.30179 1.97879 7.96712 q 7.60262,0 13.01819,-5.67865 5.57181,-5.84566 5.57181,-14.19664 0,-7.90554 -5.57181,-13.58419 -5.46764,-5.56729 -13.01819,-5.56729 z m 0,35.51936 h -7.96712 V 136.4087 h 7.96712 q 6.50909,0 10.9353,4.56522 4.37412,4.56517 4.37412,10.96754 0,6.95916 -4.37412,11.6357 -4.42621,4.73218 -10.9353,4.73218 z m 29.04828,-7.1818 q 0,-2.67233 1.77051,-4.84357 1.77045,-2.28256 4.26993,-2.28256 h 0.67695 9.73762 v -3.45176 h -9.73762 -0.67695 q -2.65571,-0.5567 -4.34807,-2.44962 -1.69237,-1.89286 -1.69237,-4.50952 0,-3.28466 1.79654,-5.20542 1.79647,-1.92068 4.92085,-1.92068 h 17.70478 V 132.957 h -17.70478 q -4.00959,0 -6.97775,3.17337 -2.96812,3.062 -2.96812,7.46014 0,2.78367 0.98937,5.0663 0.98934,2.28256 2.91607,3.28465 -1.92673,1.50317 -2.91607,3.95282 -0.98937,2.44964 -0.98937,5.23326 0,4.34248 2.96812,7.40454 3.02022,3.229 6.97775,3.229 h 17.70478 v -3.67441 h -17.70478 q -3.12438,0 -4.92085,-1.89287 -1.79654,-1.89291 -1.79654,-5.06626 z m 46.8572,-8.85202 h 3.90545 q 3.95751,0 6.56119,-2.78362 2.60364,-2.78368 2.60364,-7.01481 0,-3.73013 -2.60364,-6.68075 -2.75989,-3.06206 -6.56119,-3.06206 h -16.29876 -3.22855 v 39.08247 h 3.22855 V 152.2755 h 8.48783 l 11.09152,19.54123 h 3.90546 z m -12.39331,-3.45169 v -12.58216 h 16.29876 q 2.39534,0 4.21788,1.83721 1.71842,1.83723 1.71842,4.39821 0,2.67233 -1.71842,4.50951 -1.82254,1.83723 -4.21788,1.83723 z"
       id="path2"
       style="stroke-width:1.34609" />
  </g>
</svg>
