<?xml version="1.0" encoding="UTF-8" standalone="no"?>
<!-- Created with Inkscape (http://www.inkscape.org/) -->

<svg
   width="210mm"
   height="297mm"
   viewBox="0 0 210 297"
   version="1.1"
   id="svg3632"
   inkscape:version="1.2.1 (9c6d41e410, 2022-07-14)"
   sodipodi:docname="t.svg"
   xmlns:inkscape="http://www.inkscape.org/namespaces/inkscape"
   xmlns:sodipodi="http://sodipodi.sourceforge.net/DTD/sodipodi-0.dtd"
   xmlns="http://www.w3.org/2000/svg"
   xmlns:svg="http://www.w3.org/2000/svg">
  <sodipodi:namedview
     id="namedview3634"
     pagecolor="#ffffff"
     bordercolor="#000000"
     borderopacity="0.25"
     inkscape:showpageshadow="2"
     inkscape:pageopacity="0.0"
     inkscape:pagecheckerboard="0"
     inkscape:deskcolor="#d1d1d1"
     inkscape:document-units="mm"
     showgrid="false"
     inkscape:zoom="0.36257716"
     inkscape:cx="244.08598"
     inkscape:cy="699.16152"
     inkscape:window-width="1920"
     inkscape:window-height="1001"
     inkscape:window-x="-9"
     inkscape:window-y="-9"
     inkscape:window-maximized="1"
     inkscape:current-layer="layer1" />
  <defs
     id="defs3629" />
  <g
     inkscape:label="Layer 1"
     inkscape:groupmode="layer"
     id="layer1">
    <path
       fill="#ffffff"
       d="m -160.17087,122.953 h 35.46238 v -4.73699 h -40.07177 v 0.91682 52.64223 h 4.60939 v -23.838 h 18.80916 v -4.96623 h -18.80916 z m 64.147478,-4.66062 q -8.400888,0 -14.422808,6.18871 -6.09631,6.26508 -6.09631,14.89877 v 11.53694 q 0,8.48085 6.09631,14.74601 6.09624,6.26508 14.422808,6.26508 8.400963,0 14.497199,-6.26508 6.021913,-6.18871 6.021913,-14.74601 v -11.53694 q 0,-8.71005 -6.021913,-14.89877 -6.021915,-6.18871 -14.497199,-6.18871 z m 15.909796,21.08748 v 11.53694 q 0,6.95283 -4.758104,11.68983 -4.683711,4.5842 -11.151692,4.5842 -6.467978,0 -11.077298,-4.5842 -4.7581,-4.737 -4.7581,-11.68983 v -11.53694 q 0,-6.41792 4.7581,-11.46062 4.75803,-4.8898 11.077298,-4.8898 6.244947,0 11.151692,4.8898 4.758104,5.0427 4.758104,11.46062 z m 38.201228,5.57744 h 5.575846 q 5.65017,0 9.367423,-3.82015 3.717183,-3.82021 3.717183,-9.62689 0,-5.11912 -3.717183,-9.16845 -3.94029,-4.20228 -9.367423,-4.20228 h -23.26991 -4.609317 v 53.63553 h 4.609317 V 144.9573 h 12.118221 l 15.835401,26.81776 h 5.575844 z m -17.694064,-4.73699 V 122.953 h 23.26991 q 3.41983,0 6.021916,2.52131 2.453371,2.52134 2.453371,6.03595 0,3.66741 -2.453371,6.18871 -2.602086,2.52134 -6.021916,2.52134 z m 47.2713,31.40202 h 4.6093898 v -32.31886 q 0,-6.41793 4.7580297,-11.30782 4.7580332,-4.88984 11.0029788,-4.88984 6.0963037,0 11.0030487,4.88984 4.68371,4.81342 4.68371,11.30782 v 32.31886 h 4.75803 v -32.31886 q 0,-6.57076 4.758034,-11.30782 4.758101,-4.88984 10.928656,-4.88984 6.244946,0 11.003055,4.88984 4.758018,4.88989 4.758018,11.30782 v 32.31886 h 4.609409 v -32.31886 q 0,-8.71006 -5.947602,-14.82238 -5.9476,-6.11234 -14.42288,-6.11234 -5.575847,0 -10.482591,3.13258 -4.981065,3.20897 -7.137079,8.17526 -2.899442,-5.11913 -7.806186,-8.17526 -5.129776,-3.13258 -10.7056227,-3.13258 -8.40089336,0 -14.348486,6.11234 -6.0219123,6.18872 -6.0219123,14.82238 z M 136.40463,144.49888 q 2.89941,-1.45164 4.75806,-4.81346 1.85862,-3.20896 1.85862,-6.87635 0,-6.57066 -4.31197,-10.6201 -4.31201,-3.97296 -10.85432,-3.97296 h -20.89087 -0.89213 -3.79156 v 53.55905 h 3.79156 0.89213 20.89087 q 6.54231,0 10.85432,-3.97297 4.31197,-4.04945 4.31197,-10.62013 0,-3.59101 -1.82144,-6.99097 -1.82143,-3.4 -4.79524,-5.69211 z m -29.44048,-22.38629 h 20.89087 q 4.46067,0 7.36013,3.1325 3.12244,3.36182 3.12244,7.56398 0,3.43819 -2.45336,6.34158 -2.30467,2.5977 -6.09626,3.43816 h -1.93295 -20.89087 z m 20.89087,45.76589 h -20.89087 v -20.47624 h 20.89087 1.93295 q 3.79159,0.84048 6.09626,3.43821 2.45336,2.90333 2.45336,6.34151 0,4.12582 -3.12244,7.48754 -2.97379,3.20898 -7.36013,3.20898 z m 68.16206,-49.66247 h -4.6837 v 32.62444 q 0,7.02918 -4.75804,11.76618 -4.68371,4.5842 -11.15169,4.5842 -7.06275,0 -11.37471,-4.5842 -4.38638,-4.66065 -4.38638,-11.76618 v -32.62444 h -4.75804 v 32.62444 q 0,8.71002 5.79891,14.82236 5.87319,6.26508 14.72022,6.26508 8.25225,0 14.4972,-6.26508 6.09623,-6.11234 6.09623,-14.82236 z m 11.58587,53.63552 h 4.68376 v -53.712 h -4.68376 z m 16.56699,0.0766 h 36.35451 V 168.0315 H 228.7793 v -49.73883 h -4.60936 z m 61.3224,-53.71192 h -11.3747 -2.82513 -1.85856 v 53.55909 h 1.85856 2.82513 11.3747 q 10.8543,0 18.58613,-7.7932 7.95491,-8.02239 7.95491,-19.48301 0,-10.84931 -7.95491,-18.64251 -7.80618,-7.64037 -18.58613,-7.64037 z m 0,48.74564 h -11.3747 V 123.1824 h 11.3747 q 9.29306,0 15.61239,6.26516 6.24495,6.2651 6.24495,15.05151 0,9.55053 -6.24495,15.96846 -6.31933,6.4943 -15.61239,6.4943 z m 41.47238,-9.85608 q 0,-3.66742 2.52777,-6.64716 2.52768,-3.13251 6.0962,-3.13251 h 0.96649 13.90244 v -4.73709 h -13.90244 -0.96649 q -3.79158,-0.764 -6.20777,-3.36178 -2.4162,-2.5977 -2.4162,-6.18872 0,-4.50776 2.56493,-7.14375 2.56483,-2.63588 7.02553,-2.63588 h 25.2772 v -4.81346 h -25.2772 q -5.72452,0 -9.96218,4.35503 -4.2376,4.20219 -4.2376,10.23806 0,3.82022 1.41252,6.95283 1.41249,3.13251 4.16329,4.50775 -2.7508,2.0629 -4.16329,5.42472 -1.41252,3.36181 -1.41252,7.18196 0,5.95948 4.2376,10.16176 4.31199,4.43137 9.96218,4.43137 h 25.2772 v -5.04264 h -25.2772 q -4.4607,0 -7.02553,-2.59771 -2.56493,-2.59777 -2.56493,-6.95278 z M 393.863,144.95752 h 5.57582 q 5.65017,0 9.36744,-3.82015 3.71723,-3.82023 3.71723,-9.6269 0,-5.11911 -3.71723,-9.16845 -3.9403,-4.20228 -9.36744,-4.20228 H 376.169 371.55958 v 53.63554 h 4.60942 v -26.81779 h 12.11812 l 15.83542,26.81777 h 5.57584 z m -17.694,-4.73699 v -17.26735 h 23.26982 q 3.41984,0 6.02189,2.52132 2.45339,2.52136 2.45339,6.03597 0,3.66742 -2.45339,6.18871 -2.60205,2.52135 -6.02189,2.52135 z"
       id="path2"
       style="stroke-width:1.88421" />
  </g>
</svg>
