<?xml version="1.0" encoding="UTF-8" standalone="no"?>
<svg
   version="1.1"
   viewBox="0 0 512 512"
   enable-background="new 0 0 512 512"
   id="svg16"
   sodipodi:docname="right_arrow.svg"
   inkscape:version="1.2.1 (9c6d41e410, 2022-07-14)"
   xmlns:inkscape="http://www.inkscape.org/namespaces/inkscape"
   xmlns:sodipodi="http://sodipodi.sourceforge.net/DTD/sodipodi-0.dtd"
   xmlns="http://www.w3.org/2000/svg"
   xmlns:svg="http://www.w3.org/2000/svg">
  <defs
     id="defs20" />
  <sodipodi:namedview
     id="namedview18"
     pagecolor="#ffffff"
     bordercolor="#000000"
     borderopacity="0.25"
     inkscape:showpageshadow="2"
     inkscape:pageopacity="0.0"
     inkscape:pagecheckerboard="0"
     inkscape:deskcolor="#d1d1d1"
     showgrid="false"
     inkscape:zoom="1.5898438"
     inkscape:cx="379.91154"
     inkscape:cy="256.62898"
     inkscape:window-width="1920"
     inkscape:window-height="1001"
     inkscape:window-x="-9"
     inkscape:window-y="-9"
     inkscape:window-maximized="1"
     inkscape:current-layer="svg16" />
  <g
     id="g14"
     transform="rotate(90,255.98844,255.9625)">
    <path
       d="M 184.5,460.1 H 321.8 V 237 c 0,-11.3 9.1,-20.4 20.3,-20.4 h 69.3 L 255.6,60.1 99.9,216.6 h 64.2 c 11.2,0 20.3,9.1 20.3,20.4 V 460.1 Z M 342,501 H 164.1 c -11.2,0 -20.3,-9.1 -20.3,-20.4 V 257.5 H 50.9 C 31,257.5 25.7,233.6 36.5,222.6 L 241.3,16.7 C 248.9,9 262.4,9 270,16.7 l 204.7,205.9 c 12.6,12.7 5.4,34.9 -14.4,34.9 h -98 v 223.1 c 0.1,11.3 -9,20.4 -20.3,20.4 z"
       id="path12" />
  </g>
  <path
     style="fill:#e6e6e6;stroke-width:0.628993"
     d="m 500.24615,258.79339 c -0.2709,1.82764 -1.08803,4.49023 -1.81583,5.91685 -0.87299,1.71119 -23.93668,25.0781 -67.77614,68.6672 -36.54907,36.34034 -84.00174,83.52023 -105.45039,104.8442 -42.83695,42.58795 -41.45541,41.42152 -49.69042,41.95334 -10.45675,0.6753 -18.65792,-6.09478 -20.4015,-16.84149 -0.41986,-2.5878 -0.66198,-21.75651 -0.665,-52.64755 l -0.005,-48.57807 -113.70385,-0.16886 -113.703849,-0.16886 -4.17845,-2.05714 c -4.78641,-2.35647 -7.54839,-5.20119 -9.88341,-10.17951 l -1.63608,-3.48816 v -92.77641 c 0,-88.10509 0.0577,-92.94174 1.14507,-96.0599 1.52057,-4.36026 5.86305,-9.09872 10.36385,-11.30891 l 3.5869,-1.76141 113.979409,-0.16558 113.97941,-0.16558 0.19471,-48.581351 c 0.18059,-45.05602 0.27715,-48.79562 1.33072,-51.53417 1.59635,-4.14937 5.48072,-8.29985 9.71256,-10.37795 3.1364,-1.54017 4.32124,-1.76505 9.29975,-1.76505 5.12354,0 6.07091,0.19244 9.28947,1.88698 2.94402,1.55 22.22477,20.42065 107.96723,105.670761 71.16508,70.75644 104.88028,104.69516 105.94527,106.64765 1.93317,3.54415 2.76378,8.66411 2.11532,13.03897 z"
     id="path1006" />
  <path
     style="fill:#e6e6e6;stroke-width:0.628993"
     d=""
     id="path1008" />
  <path
     style="fill:#e6e6e6;stroke-width:0.628993"
     d="m 499.59103,260.78286 c -0.75905,2.74194 -1.88553,4.41733 -5.92078,8.8059 -5.20166,5.65711 -100.50954,100.84126 -166.08542,165.8698 -22.41193,22.22488 -39.85762,39.0181 -42.44176,40.85447 -4.284,3.04434 -4.50986,3.12324 -9.55519,3.33831 -4.43462,0.18904 -5.64102,0.003 -8.50663,-1.31469 -4.85751,-2.23294 -7.12649,-4.42967 -9.45155,-9.1506 l -2.06452,-4.19191 -0.40513,-27.06163 c -0.22282,-14.8839 -0.4351,-37.98454 -0.47174,-51.33476 l -0.0666,-24.27313 -14.25398,-0.41483 c -7.83969,-0.22816 -58.93769,-0.41483 -113.5511,-0.41483 H 27.519496 l -3.66229,-1.84872 c -5.27992,-2.6653 -7.15773,-4.47997 -9.75977,-9.43167 l -2.31006,-4.39605 0.17884,-93.27234 0.17883,-93.27235 1.33776,-2.83046 c 1.98408,-4.19797 5.34018,-7.70557 9.48802,-9.91635 l 3.68798,-1.96567 113.614684,-0.19167 c 62.48808,-0.10542 113.82288,-0.39994 114.07734,-0.65448 0.25446,-0.25454 0.63967,-22.47371 0.85602,-49.375921 l 0.39337,-48.91311 1.40157,-2.65573 c 2.21288,-4.193 4.94134,-6.8823 9.08153,-8.95118 3.33782,-1.66792 4.49498,-1.91464 8.92384,-1.90262 3.56203,0.01 5.84795,0.3587 7.61933,1.16338 4.07933,1.85311 24.22921,21.5292 122.46901,119.589391 74.52543,74.38916 92.54844,92.69289 93.52123,94.97788 1.72402,4.04952 2.09712,9.07966 0.9743,13.13557 z"
     id="path1010" />
  <path
     style="fill:#e6e6e6;stroke-width:0.628993"
     d="m 499.59118,260.78219 c -0.7333,2.64884 -1.88472,4.42801 -5.29181,8.1769 -4.59613,5.05722 -108.27628,108.60471 -168.91605,168.69992 -20.8546,20.66732 -37.68806,36.8361 -40.24029,38.65136 -4.28512,3.04777 -4.50854,3.12589 -9.55519,3.34102 -4.43462,0.18903 -5.64102,0.003 -8.50663,-1.3147 -4.85751,-2.23294 -7.12649,-4.42966 -9.45155,-9.1506 l -2.06452,-4.19191 -0.40513,-27.06163 c -0.22282,-14.8839 -0.4351,-38.01649 -0.47174,-51.40575 l -0.0666,-24.34413 -10.53563,-0.21316 c -5.79459,-0.11723 -56.91861,-0.27444 -113.60892,-0.34934 l -103.073289,-0.13619 -4.3597,-2.29096 c -4.81654,-2.53102 -7.3163,-5.14516 -9.68414,-10.12726 l -1.57259,-3.30884 0.17881,-93.24152 0.17881,-93.24153 1.74846,-3.56044 c 1.99409,-4.06061 5.32852,-7.33799 9.74023,-9.57357 l 3.04246,-1.54173 113.605969,-0.21004 c 62.48327,-0.11552 113.81154,-0.41568 114.06281,-0.66702 0.25127,-0.25133 0.63693,-22.4705 0.85704,-49.375922 l 0.40018,-48.91894 1.40059,-2.65573 c 2.21072,-4.19186 4.93972,-6.88199 9.08054,-8.95118 3.33782,-1.66792 4.49498,-1.91464 8.92384,-1.90262 3.55393,0.01 5.84862,0.35903 7.60819,1.15839 4.1075,1.86602 23.60984,20.90669 121.84994,118.965392 75.06812,74.92951 93.17968,93.32089 94.15225,95.60687 1.72321,4.05033 2.09609,9.08047 0.97368,13.13486 z"
     id="path1012" />
  <path
     style="fill:#e6e6e6;stroke-width:0.628993"
     d="m 499.58815,260.77567 c -0.73149,2.6423 -1.89014,4.43727 -5.27817,8.1769 -2.38752,2.63529 -35.29001,35.64352 -73.11664,73.35163 -129.72878,129.32227 -135.45369,134.89812 -140.45803,136.80076 -2.23476,0.84966 -9.35975,0.80541 -12.30299,-0.0764 -4.24271,-1.27114 -8.25017,-4.88687 -10.66874,-9.62584 l -2.20147,-4.3136 -0.39731,-26.79786 c -0.21852,-14.73882 -0.4308,-37.89692 -0.47174,-51.46243 l -0.0744,-24.66457 -13.99509,-0.19805 c -7.69729,-0.10894 -58.82306,-0.26439 -113.61281,-0.34545 l -99.617742,-0.14739 -4.3558,-2.28891 c -4.81377,-2.52956 -7.31281,-5.14396 -9.682,-10.12894 l -1.57436,-3.31256 0.18057,-93.5523 0.18058,-93.55229 1.84803,-3.33589 c 2.17958,-3.9344 5.4422,-7.04197 9.6085,-9.1519 l 3.0103,-1.5245 113.641412,-0.23068 c 62.50277,-0.12687 113.84551,-0.43478 114.09497,-0.68424 0.24946,-0.24947 0.63365,-22.4671 0.85376,-49.372518 l 0.40018,-48.91894 1.40059,-2.65573 c 2.21072,-4.19186 4.93972,-6.88199 9.08054,-8.95118 3.33782,-1.66792 4.49498,-1.91464 8.92384,-1.90262 3.55393,0.01 5.84862,0.35903 7.60819,1.15839 4.11195,1.86805 23.65963,20.95278 121.85121,118.965388 75.05039,74.91361 93.17775,93.32137 94.1505,95.60687 1.72362,4.04968 2.09669,9.08 0.97416,13.13486 z"
     id="path1014" />
  <path
     style="fill:#e6e6e6;stroke-width:0.628993"
     d=""
     id="path1016" />
  <path
     style="fill:#e6e6e6;stroke-width:0.628993"
     d=""
     id="path1018" />
  <path
     style="fill:#e6e6e6;stroke-width:0.628993"
     d="m 499.56077,260.75587 c -0.73201,2.6442 -1.88857,4.43458 -5.28211,8.1769 -4.35851,4.80646 -120.65232,120.93391 -174.27217,174.02286 -28.95067,28.66402 -35.1174,34.37089 -38.80587,35.91203 -2.47779,1.03529 -9.5508,1.11328 -12.79566,0.14109 -4.24271,-1.27115 -8.25017,-4.88687 -10.66874,-9.62585 l -2.20147,-4.3136 -0.39817,-26.48336 c -0.21898,-14.56585 -0.43126,-37.71916 -0.47174,-51.45181 l -0.0736,-24.96845 -19.34152,-0.2219 c -10.63784,-0.12204 -61.76223,-0.28154 -113.60975,-0.35444 l -94.268231,-0.13255 -4.35888,-2.29053 c -4.75434,-2.49833 -7.26481,-5.09361 -9.68254,-10.00962 l -1.56968,-3.19165 0.17697,-93.67322 0.17697,-93.67321 1.84802,-3.33589 c 2.1821,-3.93894 5.44818,-7.04754 9.60851,-9.14524 l 3.0103,-1.51783 113.677051,-0.27297 c 62.52236,-0.15013 113.83454,-0.43049 114.02706,-0.62301 0.19253,-0.19252 0.48572,-19.70518 0.65155,-43.36146 0.35111,-50.089816 0.4955,-54.523096 1.87007,-57.419786 1.7993,-3.79175 5.24637,-7.17088 9.402,-9.21668 3.86597,-1.90322 4.23788,-1.96444 9.88023,-1.62635 7.09747,0.42527 7.43553,0.4771 7.43553,1.14003 0,0.28828 0.56609,0.52416 1.25799,0.52416 0.69189,0 1.18722,0.22349 1.10073,0.49665 -0.0865,0.27316 2.67322,3.16099 6.13268,6.4174 11.62257,10.94041 39.78526,38.85773 122.78464,121.714936 65.95876,65.84576 82.78561,82.96662 83.7649,85.22849 1.74141,4.02222 2.123,9.05993 0.99491,13.13486 z"
     id="path1020" />
  <path
     style="fill:#1a1a1a;stroke-width:0.628993"
     d="m 267.40206,478.6834 c -5.42253,-1.9329 -10.44311,-8.14168 -11.65519,-14.41358 -0.35288,-1.82596 -0.80295,-24.57937 -1.04034,-52.59416 -0.23011,-27.15675 -0.45779,-49.41995 -0.50595,-49.47376 -0.0482,-0.0538 -51.40303,-0.30666 -114.12193,-0.56188 l -114.034364,-0.46405 -3.587254,-2.12061 c -4.3581,-2.57629 -7.173672,-5.6369 -9.278361,-10.08585 l -1.585434,-3.35133 0.178811,-93.24153 c 0.178433,-93.0442 0.181591,-93.24751 1.492241,-96.07199 1.721776,-3.71046 6.270527,-8.32486 10.138655,-10.28499 l 3.093735,-1.56772 113.598641,-0.20632 c 62.47926,-0.11348 113.79496,-0.4027 114.03491,-0.64272 0.23994,-0.24003 0.54847,-17.78892 0.68561,-38.99755 0.36607,-56.612566 0.44079,-58.841859 2.07991,-62.0548 1.71822,-3.367986 5.50173,-7.170789 8.98478,-9.030606 2.2968,-1.226403 3.63726,-1.441331 8.98924,-1.441331 7.8904,0 8.63428,0.376101 17.27039,8.731843 22.93462,22.190045 86.76745,85.468514 141.35985,140.132194 70.28918,70.38095 66.44709,66.08047 66.4951,74.42834 0.043,7.4776 -0.10647,7.69571 -17.41369,25.40768 -23.07829,23.61801 -182.59233,182.20609 -190.93662,189.82826 -3.91967,3.58046 -8.22486,7.07018 -9.56708,7.75493 -2.944,1.50192 -10.87666,1.67572 -14.67566,0.32153 z"
     id="path4751" />
  <path
     style="fill:#333333;stroke-width:0.628993"
     d="m 271.41031,478.93022 c -1.9027,-0.21122 -4.37488,-0.85794 -5.49371,-1.43717 -4.45826,-2.30806 -8.89578,-8.45316 -9.82883,-13.611 -0.21903,-1.21081 -0.68688,-24.54327 -1.03968,-51.8499 -0.35279,-27.30664 -0.73735,-49.74434 -0.85457,-49.86157 -0.11723,-0.11723 -51.47748,-0.47329 -114.13389,-0.79126 l -113.920747,-0.57811 -2.813934,-1.64908 c -4.030768,-2.36219 -7.762958,-6.32476 -9.747899,-10.34962 l -1.718972,-3.48557 0.360887,-93.4054 0.360887,-93.4054 1.349991,-2.52028 c 1.586264,-2.96137 7.240212,-8.48434 10.311352,-10.07249 2.028936,-1.04921 8.726059,-1.1356 115.803205,-1.49384 62.50735,-0.20912 113.86978,-0.60038 114.13874,-0.86946 0.26896,-0.26908 0.70377,-21.43278 0.96626,-47.030456 0.27991,-27.297487 0.7477,-48.004288 1.13136,-50.079657 0.92804,-5.020256 5.17432,-10.218749 10.45344,-12.797595 3.96129,-1.935083 12.19609,-1.766959 16.41441,0.335121 2.44793,1.219855 14.23404,12.490612 51.22915,48.989156 60.7211,59.906061 153.78818,153.250211 159.22025,159.694271 5.58287,6.62294 6.3223,8.32448 6.03417,13.88556 -0.19915,3.84363 -0.53608,4.93548 -2.35467,7.63043 -4.00807,5.93953 -203.91631,205.27395 -212.15723,211.54827 -4.00397,3.04846 -7.58313,3.88518 -13.70997,3.20505 z"
     id="path4753" />
  <path
     style="fill:#4d4d4d;stroke-width:0.628993"
     d="m 271.47291,478.59226 c -3.00941,-0.50707 -5.4063,-1.35323 -7.03972,-2.48519 -2.9477,-2.04276 -7.32511,-8.34836 -7.75058,-11.16461 -0.50824,-3.36418 -0.92343,-17.73311 -1.30287,-45.08989 -0.58303,-42.03518 -0.89314,-57.38891 -1.16462,-57.66038 -0.31659,-0.3166 -40.67863,-0.64453 -146.02839,-1.18647 l -81.76904,-0.42064 -2.515971,-1.4455 c -3.438694,-1.97563 -7.996215,-6.67573 -9.944805,-10.25593 l -1.615352,-2.96794 -0.101138,-33.63599 c -0.05563,-18.4998 0.106568,-60.66695 0.36043,-93.70479 0.517146,-67.30165 0.02692,-61.32649 5.506859,-67.12072 6.291037,-6.65185 2.528548,-6.10447 43.528457,-6.33256 120.9408,-0.67279 192.20603,-1.23085 192.48245,-1.50727 0.45077,-0.45077 0.81641,-13.24499 1.23717,-43.29006 0.56738,-40.514395 0.94345,-53.335488 1.61917,-55.201813 1.77408,-4.899969 4.49385,-8.131985 8.86528,-10.534949 2.94606,-1.61945 3.99977,-1.850159 8.40054,-1.839297 3.73901,0.0092 5.75921,0.347122 7.86241,1.315047 1.84503,0.849113 7.64816,5.873625 16.6683,14.431888 16.23503,15.403701 181.26624,180.089724 190.80217,190.403064 8.7459,9.45891 9.52469,10.83374 9.52875,16.82134 0.003,4.24111 -0.20786,5.08574 -1.96169,7.86241 -1.13951,1.80407 -37.53621,38.67409 -86.64373,87.77048 -90.7923,90.7717 -122.19532,121.74134 -126.19233,124.45077 -4.3959,2.97983 -7.58518,3.67302 -12.83175,2.789 z"
     id="path4824" />
</svg>
